<svg xmlns="http://www.w3.org/2000/svg" width="740" height="683" viewBox="0 0 740 683">
  <style>
    text { font-family: Consolas, "Courier New", monospace; font-size: 14px; dominant-baseline: text-before-edge; white-space: pre; }
  </style>
  <rect width="740" height="683" fill="#000000" />
  <g transform="translate(10, 10)">
    <text x="0" y="2" fill="#333333" textLength="720" lengthAdjust="spacingAndGlyphs">╭──────────────────────────────────────────────────────────────────────────────╮</text>
    <text x="0" y="19" fill="#333333" textLength="9" lengthAdjust="spacingAndGlyphs">│</text>
    <text x="18" y="19" fill="#ffffaf" textLength="99" lengthAdjust="spacingAndGlyphs" font-weight="bold">? replace  </text>
    <text x="117" y="19" fill="#ffffff" textLength="234" lengthAdjust="spacingAndGlyphs">Replaces content in a file</text>
    <text x="711" y="19" fill="#333333" textLength="9" lengthAdjust="spacingAndGlyphs">│</text>
    <text x="0" y="36" fill="#333333" textLength="9" lengthAdjust="spacingAndGlyphs">│</text>
    <text x="18" y="36" fill="#333333" textLength="684" lengthAdjust="spacingAndGlyphs">╭──────────────────────────────────────────────────────────────────────────╮</text>
    <text x="711" y="36" fill="#333333" textLength="9" lengthAdjust="spacingAndGlyphs">│</text>
    <text x="0" y="53" fill="#333333" textLength="9" lengthAdjust="spacingAndGlyphs">│</text>
    <text x="18" y="53" fill="#333333" textLength="9" lengthAdjust="spacingAndGlyphs">│</text>
    <text x="36" y="53" fill="#afafaf" textLength="234" lengthAdjust="spacingAndGlyphs">... 13 hidden (Ctrl+O) ...</text>
    <text x="693" y="53" fill="#333333" textLength="9" lengthAdjust="spacingAndGlyphs">│</text>
    <text x="711" y="53" fill="#333333" textLength="9" lengthAdjust="spacingAndGlyphs">│</text>
    <text x="0" y="70" fill="#333333" textLength="9" lengthAdjust="spacingAndGlyphs">│</text>
    <text x="18" y="70" fill="#333333" textLength="9" lengthAdjust="spacingAndGlyphs">│</text>
    <rect x="36" y="68" width="9" height="17" fill="#005f00" />
    <rect x="45" y="68" width="9" height="17" fill="#005f00" />
    <text x="45" y="70" fill="#afafaf" textLength="9" lengthAdjust="spacingAndGlyphs">7</text>
    <rect x="54" y="68" width="9" height="17" fill="#005f00" />
    <rect x="63" y="68" width="9" height="17" fill="#005f00" />
    <text x="63" y="70" fill="#d7ffd7" textLength="9" lengthAdjust="spacingAndGlyphs">+</text>
    <rect x="72" y="68" width="9" height="17" fill="#005f00" />
    <rect x="81" y="68" width="45" height="17" fill="#005f00" />
    <text x="81" y="70" fill="#0000ee" textLength="45" lengthAdjust="spacingAndGlyphs">const</text>
    <rect x="126" y="68" width="108" height="17" fill="#005f00" />
    <text x="126" y="70" fill="#e5e5e5" textLength="108" lengthAdjust="spacingAndGlyphs"> newLine7 = </text>
    <rect x="234" y="68" width="36" height="17" fill="#005f00" />
    <text x="234" y="70" fill="#0000ee" textLength="36" lengthAdjust="spacingAndGlyphs">true</text>
    <rect x="270" y="68" width="9" height="17" fill="#005f00" />
    <text x="270" y="70" fill="#e5e5e5" textLength="9" lengthAdjust="spacingAndGlyphs">;</text>
    <text x="693" y="70" fill="#333333" textLength="9" lengthAdjust="spacingAndGlyphs">│</text>
    <text x="711" y="70" fill="#333333" textLength="9" lengthAdjust="spacingAndGlyphs">│</text>
    <text x="0" y="87" fill="#333333" textLength="9" lengthAdjust="spacingAndGlyphs">│</text>
    <text x="18" y="87" fill="#333333" textLength="9" lengthAdjust="spacingAndGlyphs">│</text>
    <rect x="36" y="85" width="9" height="17" fill="#5f0000" />
    <rect x="45" y="85" width="9" height="17" fill="#5f0000" />
    <text x="45" y="87" fill="#afafaf" textLength="9" lengthAdjust="spacingAndGlyphs">8</text>
    <rect x="54" y="85" width="9" height="17" fill="#5f0000" />
    <rect x="63" y="85" width="9" height="17" fill="#5f0000" />
    <text x="63" y="87" fill="#ff87af" textLength="9" lengthAdjust="spacingAndGlyphs">-</text>
    <rect x="72" y="85" width="9" height="17" fill="#5f0000" />
    <rect x="81" y="85" width="45" height="17" fill="#5f0000" />
    <text x="81" y="87" fill="#0000ee" textLength="45" lengthAdjust="spacingAndGlyphs">const</text>
    <rect x="126" y="85" width="108" height="17" fill="#5f0000" />
    <text x="126" y="87" fill="#e5e5e5" textLength="108" lengthAdjust="spacingAndGlyphs"> oldLine8 = </text>
    <rect x="234" y="85" width="36" height="17" fill="#5f0000" />
    <text x="234" y="87" fill="#0000ee" textLength="36" lengthAdjust="spacingAndGlyphs">true</text>
    <rect x="270" y="85" width="9" height="17" fill="#5f0000" />
    <text x="270" y="87" fill="#e5e5e5" textLength="9" lengthAdjust="spacingAndGlyphs">;</text>
    <text x="693" y="87" fill="#333333" textLength="9" lengthAdjust="spacingAndGlyphs">│</text>
    <text x="711" y="87" fill="#333333" textLength="9" lengthAdjust="spacingAndGlyphs">│</text>
    <text x="0" y="104" fill="#333333" textLength="9" lengthAdjust="spacingAndGlyphs">│</text>
    <text x="18" y="104" fill="#333333" textLength="9" lengthAdjust="spacingAndGlyphs">│</text>
    <rect x="36" y="102" width="9" height="17" fill="#005f00" />
    <rect x="45" y="102" width="9" height="17" fill="#005f00" />
    <text x="45" y="104" fill="#afafaf" textLength="9" lengthAdjust="spacingAndGlyphs">8</text>
    <rect x="54" y="102" width="9" height="17" fill="#005f00" />
    <rect x="63" y="102" width="9" height="17" fill="#005f00" />
    <text x="63" y="104" fill="#d7ffd7" textLength="9" lengthAdjust="spacingAndGlyphs">+</text>
    <rect x="72" y="102" width="9" height="17" fill="#005f00" />
    <rect x="81" y="102" width="45" height="17" fill="#005f00" />
    <text x="81" y="104" fill="#0000ee" textLength="45" lengthAdjust="spacingAndGlyphs">const</text>
    <rect x="126" y="102" width="108" height="17" fill="#005f00" />
    <text x="126" y="104" fill="#e5e5e5" textLength="108" lengthAdjust="spacingAndGlyphs"> newLine8 = </text>
    <rect x="234" y="102" width="36" height="17" fill="#005f00" />
    <text x="234" y="104" fill="#0000ee" textLength="36" lengthAdjust="spacingAndGlyphs">true</text>
    <rect x="270" y="102" width="9" height="17" fill="#005f00" />
    <text x="270" y="104" fill="#e5e5e5" textLength="9" lengthAdjust="spacingAndGlyphs">;</text>
    <text x="693" y="104" fill="#333333" textLength="9" lengthAdjust="spacingAndGlyphs">│</text>
    <text x="711" y="104" fill="#333333" textLength="9" lengthAdjust="spacingAndGlyphs">│</text>
    <text x="0" y="121" fill="#333333" textLength="9" lengthAdjust="spacingAndGlyphs">│</text>
    <text x="18" y="121" fill="#333333" textLength="9" lengthAdjust="spacingAndGlyphs">│</text>
    <rect x="36" y="119" width="9" height="17" fill="#5f0000" />
    <rect x="45" y="119" width="9" height="17" fill="#5f0000" />
    <text x="45" y="121" fill="#afafaf" textLength="9" lengthAdjust="spacingAndGlyphs">9</text>
    <rect x="54" y="119" width="9" height="17" fill="#5f0000" />
    <rect x="63" y="119" width="9" height="17" fill="#5f0000" />
    <text x="63" y="121" fill="#ff87af" textLength="9" lengthAdjust="spacingAndGlyphs">-</text>
    <rect x="72" y="119" width="9" height="17" fill="#5f0000" />
    <rect x="81" y="119" width="45" height="17" fill="#5f0000" />
    <text x="81" y="121" fill="#0000ee" textLength="45" lengthAdjust="spacingAndGlyphs">const</text>
    <rect x="126" y="119" width="108" height="17" fill="#5f0000" />
    <text x="126" y="121" fill="#e5e5e5" textLength="108" lengthAdjust="spacingAndGlyphs"> oldLine9 = </text>
    <rect x="234" y="119" width="36" height="17" fill="#5f0000" />
    <text x="234" y="121" fill="#0000ee" textLength="36" lengthAdjust="spacingAndGlyphs">true</text>
    <rect x="270" y="119" width="9" height="17" fill="#5f0000" />
    <text x="270" y="121" fill="#e5e5e5" textLength="9" lengthAdjust="spacingAndGlyphs">;</text>
    <text x="693" y="121" fill="#333333" textLength="9" lengthAdjust="spacingAndGlyphs">│</text>
    <text x="711" y="121" fill="#333333" textLength="9" lengthAdjust="spacingAndGlyphs">│</text>
    <text x="0" y="138" fill="#333333" textLength="9" lengthAdjust="spacingAndGlyphs">│</text>
    <text x="18" y="138" fill="#333333" textLength="9" lengthAdjust="spacingAndGlyphs">│</text>
    <rect x="36" y="136" width="9" height="17" fill="#005f00" />
    <rect x="45" y="136" width="9" height="17" fill="#005f00" />
    <text x="45" y="138" fill="#afafaf" textLength="9" lengthAdjust="spacingAndGlyphs">9</text>
    <rect x="54" y="136" width="9" height="17" fill="#005f00" />
    <rect x="63" y="136" width="9" height="17" fill="#005f00" />
    <text x="63" y="138" fill="#d7ffd7" textLength="9" lengthAdjust="spacingAndGlyphs">+</text>
    <rect x="72" y="136" width="9" height="17" fill="#005f00" />
    <rect x="81" y="136" width="45" height="17" fill="#005f00" />
    <text x="81" y="138" fill="#0000ee" textLength="45" lengthAdjust="spacingAndGlyphs">const</text>
    <rect x="126" y="136" width="108" height="17" fill="#005f00" />
    <text x="126" y="138" fill="#e5e5e5" textLength="108" lengthAdjust="spacingAndGlyphs"> newLine9 = </text>
    <rect x="234" y="136" width="36" height="17" fill="#005f00" />
    <text x="234" y="138" fill="#0000ee" textLength="36" lengthAdjust="spacingAndGlyphs">true</text>
    <rect x="270" y="136" width="9" height="17" fill="#005f00" />
    <text x="270" y="138" fill="#e5e5e5" textLength="9" lengthAdjust="spacingAndGlyphs">;</text>
    <text x="693" y="138" fill="#333333" textLength="9" lengthAdjust="spacingAndGlyphs">│</text>
    <text x="711" y="138" fill="#333333" textLength="9" lengthAdjust="spacingAndGlyphs">│</text>
    <text x="0" y="155" fill="#333333" textLength="9" lengthAdjust="spacingAndGlyphs">│</text>
    <text x="18" y="155" fill="#333333" textLength="9" lengthAdjust="spacingAndGlyphs">│</text>
    <rect x="36" y="153" width="18" height="17" fill="#5f0000" />
    <text x="36" y="155" fill="#afafaf" textLength="18" lengthAdjust="spacingAndGlyphs">10</text>
    <rect x="54" y="153" width="9" height="17" fill="#5f0000" />
    <rect x="63" y="153" width="9" height="17" fill="#5f0000" />
    <text x="63" y="155" fill="#ff87af" textLength="9" lengthAdjust="spacingAndGlyphs">-</text>
    <rect x="72" y="153" width="9" height="17" fill="#5f0000" />
    <rect x="81" y="153" width="45" height="17" fill="#5f0000" />
    <text x="81" y="155" fill="#0000ee" textLength="45" lengthAdjust="spacingAndGlyphs">const</text>
    <rect x="126" y="153" width="117" height="17" fill="#5f0000" />
    <text x="126" y="155" fill="#e5e5e5" textLength="117" lengthAdjust="spacingAndGlyphs"> oldLine10 = </text>
    <rect x="243" y="153" width="36" height="17" fill="#5f0000" />
    <text x="243" y="155" fill="#0000ee" textLength="36" lengthAdjust="spacingAndGlyphs">true</text>
    <rect x="279" y="153" width="9" height="17" fill="#5f0000" />
    <text x="279" y="155" fill="#e5e5e5" textLength="9" lengthAdjust="spacingAndGlyphs">;</text>
    <text x="693" y="155" fill="#333333" textLength="9" lengthAdjust="spacingAndGlyphs">│</text>
    <text x="711" y="155" fill="#333333" textLength="9" lengthAdjust="spacingAndGlyphs">│</text>
    <text x="0" y="172" fill="#333333" textLength="9" lengthAdjust="spacingAndGlyphs">│</text>
    <text x="18" y="172" fill="#333333" textLength="9" lengthAdjust="spacingAndGlyphs">│</text>
    <rect x="36" y="170" width="18" height="17" fill="#005f00" />
    <text x="36" y="172" fill="#afafaf" textLength="18" lengthAdjust="spacingAndGlyphs">10</text>
    <rect x="54" y="170" width="9" height="17" fill="#005f00" />
    <rect x="63" y="170" width="9" height="17" fill="#005f00" />
    <text x="63" y="172" fill="#d7ffd7" textLength="9" lengthAdjust="spacingAndGlyphs">+</text>
    <rect x="72" y="170" width="9" height="17" fill="#005f00" />
    <rect x="81" y="170" width="45" height="17" fill="#005f00" />
    <text x="81" y="172" fill="#0000ee" textLength="45" lengthAdjust="spacingAndGlyphs">const</text>
    <rect x="126" y="170" width="117" height="17" fill="#005f00" />
    <text x="126" y="172" fill="#e5e5e5" textLength="117" lengthAdjust="spacingAndGlyphs"> newLine10 = </text>
    <rect x="243" y="170" width="36" height="17" fill="#005f00" />
    <text x="243" y="172" fill="#0000ee" textLength="36" lengthAdjust="spacingAndGlyphs">true</text>
    <rect x="279" y="170" width="9" height="17" fill="#005f00" />
    <text x="279" y="172" fill="#e5e5e5" textLength="9" lengthAdjust="spacingAndGlyphs">;</text>
    <text x="693" y="172" fill="#333333" textLength="9" lengthAdjust="spacingAndGlyphs">│</text>
    <text x="711" y="172" fill="#333333" textLength="9" lengthAdjust="spacingAndGlyphs">│</text>
    <text x="0" y="189" fill="#333333" textLength="9" lengthAdjust="spacingAndGlyphs">│</text>
    <text x="18" y="189" fill="#333333" textLength="9" lengthAdjust="spacingAndGlyphs">│</text>
    <rect x="36" y="187" width="18" height="17" fill="#5f0000" />
    <text x="36" y="189" fill="#afafaf" textLength="18" lengthAdjust="spacingAndGlyphs">11</text>
    <rect x="54" y="187" width="9" height="17" fill="#5f0000" />
    <rect x="63" y="187" width="9" height="17" fill="#5f0000" />
    <text x="63" y="189" fill="#ff87af" textLength="9" lengthAdjust="spacingAndGlyphs">-</text>
    <rect x="72" y="187" width="9" height="17" fill="#5f0000" />
    <rect x="81" y="187" width="45" height="17" fill="#5f0000" />
    <text x="81" y="189" fill="#0000ee" textLength="45" lengthAdjust="spacingAndGlyphs">const</text>
    <rect x="126" y="187" width="117" height="17" fill="#5f0000" />
    <text x="126" y="189" fill="#e5e5e5" textLength="117" lengthAdjust="spacingAndGlyphs"> oldLine11 = </text>
    <rect x="243" y="187" width="36" height="17" fill="#5f0000" />
    <text x="243" y="189" fill="#0000ee" textLength="36" lengthAdjust="spacingAndGlyphs">true</text>
    <rect x="279" y="187" width="9" height="17" fill="#5f0000" />
    <text x="279" y="189" fill="#e5e5e5" textLength="9" lengthAdjust="spacingAndGlyphs">;</text>
    <text x="693" y="189" fill="#333333" textLength="9" lengthAdjust="spacingAndGlyphs">│</text>
    <text x="711" y="189" fill="#333333" textLength="9" lengthAdjust="spacingAndGlyphs">│</text>
    <text x="0" y="206" fill="#333333" textLength="9" lengthAdjust="spacingAndGlyphs">│</text>
    <text x="18" y="206" fill="#333333" textLength="9" lengthAdjust="spacingAndGlyphs">│</text>
    <rect x="36" y="204" width="18" height="17" fill="#005f00" />
    <text x="36" y="206" fill="#afafaf" textLength="18" lengthAdjust="spacingAndGlyphs">11</text>
    <rect x="54" y="204" width="9" height="17" fill="#005f00" />
    <rect x="63" y="204" width="9" height="17" fill="#005f00" />
    <text x="63" y="206" fill="#d7ffd7" textLength="9" lengthAdjust="spacingAndGlyphs">+</text>
    <rect x="72" y="204" width="9" height="17" fill="#005f00" />
    <rect x="81" y="204" width="45" height="17" fill="#005f00" />
    <text x="81" y="206" fill="#0000ee" textLength="45" lengthAdjust="spacingAndGlyphs">const</text>
    <rect x="126" y="204" width="117" height="17" fill="#005f00" />
    <text x="126" y="206" fill="#e5e5e5" textLength="117" lengthAdjust="spacingAndGlyphs"> newLine11 = </text>
    <rect x="243" y="204" width="36" height="17" fill="#005f00" />
    <text x="243" y="206" fill="#0000ee" textLength="36" lengthAdjust="spacingAndGlyphs">true</text>
    <rect x="279" y="204" width="9" height="17" fill="#005f00" />
    <text x="279" y="206" fill="#e5e5e5" textLength="9" lengthAdjust="spacingAndGlyphs">;</text>
    <text x="693" y="206" fill="#333333" textLength="9" lengthAdjust="spacingAndGlyphs">│</text>
    <text x="711" y="206" fill="#333333" textLength="9" lengthAdjust="spacingAndGlyphs">│</text>
    <text x="0" y="223" fill="#333333" textLength="9" lengthAdjust="spacingAndGlyphs">│</text>
    <text x="18" y="223" fill="#333333" textLength="9" lengthAdjust="spacingAndGlyphs">│</text>
    <rect x="36" y="221" width="18" height="17" fill="#5f0000" />
    <text x="36" y="223" fill="#afafaf" textLength="18" lengthAdjust="spacingAndGlyphs">12</text>
    <rect x="54" y="221" width="9" height="17" fill="#5f0000" />
    <rect x="63" y="221" width="9" height="17" fill="#5f0000" />
    <text x="63" y="223" fill="#ff87af" textLength="9" lengthAdjust="spacingAndGlyphs">-</text>
    <rect x="72" y="221" width="9" height="17" fill="#5f0000" />
    <rect x="81" y="221" width="45" height="17" fill="#5f0000" />
    <text x="81" y="223" fill="#0000ee" textLength="45" lengthAdjust="spacingAndGlyphs">const</text>
    <rect x="126" y="221" width="117" height="17" fill="#5f0000" />
    <text x="126" y="223" fill="#e5e5e5" textLength="117" lengthAdjust="spacingAndGlyphs"> oldLine12 = </text>
    <rect x="243" y="221" width="36" height="17" fill="#5f0000" />
    <text x="243" y="223" fill="#0000ee" textLength="36" lengthAdjust="spacingAndGlyphs">true</text>
    <rect x="279" y="221" width="9" height="17" fill="#5f0000" />
    <text x="279" y="223" fill="#e5e5e5" textLength="9" lengthAdjust="spacingAndGlyphs">;</text>
    <text x="693" y="223" fill="#333333" textLength="9" lengthAdjust="spacingAndGlyphs">│</text>
    <text x="711" y="223" fill="#333333" textLength="9" lengthAdjust="spacingAndGlyphs">│</text>
    <text x="0" y="240" fill="#333333" textLength="9" lengthAdjust="spacingAndGlyphs">│</text>
    <text x="18" y="240" fill="#333333" textLength="9" lengthAdjust="spacingAndGlyphs">│</text>
    <rect x="36" y="238" width="18" height="17" fill="#005f00" />
    <text x="36" y="240" fill="#afafaf" textLength="18" lengthAdjust="spacingAndGlyphs">12</text>
    <rect x="54" y="238" width="9" height="17" fill="#005f00" />
    <rect x="63" y="238" width="9" height="17" fill="#005f00" />
    <text x="63" y="240" fill="#d7ffd7" textLength="9" lengthAdjust="spacingAndGlyphs">+</text>
    <rect x="72" y="238" width="9" height="17" fill="#005f00" />
    <rect x="81" y="238" width="45" height="17" fill="#005f00" />
    <text x="81" y="240" fill="#0000ee" textLength="45" lengthAdjust="spacingAndGlyphs">const</text>
    <rect x="126" y="238" width="117" height="17" fill="#005f00" />
    <text x="126" y="240" fill="#e5e5e5" textLength="117" lengthAdjust="spacingAndGlyphs"> newLine12 = </text>
    <rect x="243" y="238" width="36" height="17" fill="#005f00" />
    <text x="243" y="240" fill="#0000ee" textLength="36" lengthAdjust="spacingAndGlyphs">true</text>
    <rect x="279" y="238" width="9" height="17" fill="#005f00" />
    <text x="279" y="240" fill="#e5e5e5" textLength="9" lengthAdjust="spacingAndGlyphs">;</text>
    <text x="693" y="240" fill="#333333" textLength="9" lengthAdjust="spacingAndGlyphs">│</text>
    <text x="711" y="240" fill="#333333" textLength="9" lengthAdjust="spacingAndGlyphs">│</text>
    <text x="0" y="257" fill="#333333" textLength="9" lengthAdjust="spacingAndGlyphs">│</text>
    <text x="18" y="257" fill="#333333" textLength="9" lengthAdjust="spacingAndGlyphs">│</text>
    <rect x="36" y="255" width="18" height="17" fill="#5f0000" />
    <text x="36" y="257" fill="#afafaf" textLength="18" lengthAdjust="spacingAndGlyphs">13</text>
    <rect x="54" y="255" width="9" height="17" fill="#5f0000" />
    <rect x="63" y="255" width="9" height="17" fill="#5f0000" />
    <text x="63" y="257" fill="#ff87af" textLength="9" lengthAdjust="spacingAndGlyphs">-</text>
    <rect x="72" y="255" width="9" height="17" fill="#5f0000" />
    <rect x="81" y="255" width="45" height="17" fill="#5f0000" />
    <text x="81" y="257" fill="#0000ee" textLength="45" lengthAdjust="spacingAndGlyphs">const</text>
    <rect x="126" y="255" width="117" height="17" fill="#5f0000" />
    <text x="126" y="257" fill="#e5e5e5" textLength="117" lengthAdjust="spacingAndGlyphs"> oldLine13 = </text>
    <rect x="243" y="255" width="36" height="17" fill="#5f0000" />
    <text x="243" y="257" fill="#0000ee" textLength="36" lengthAdjust="spacingAndGlyphs">true</text>
    <rect x="279" y="255" width="9" height="17" fill="#5f0000" />
    <text x="279" y="257" fill="#e5e5e5" textLength="9" lengthAdjust="spacingAndGlyphs">;</text>
    <text x="693" y="257" fill="#333333" textLength="9" lengthAdjust="spacingAndGlyphs">│</text>
    <text x="711" y="257" fill="#333333" textLength="9" lengthAdjust="spacingAndGlyphs">│</text>
    <text x="0" y="274" fill="#333333" textLength="9" lengthAdjust="spacingAndGlyphs">│</text>
    <text x="18" y="274" fill="#333333" textLength="9" lengthAdjust="spacingAndGlyphs">│</text>
    <rect x="36" y="272" width="18" height="17" fill="#005f00" />
    <text x="36" y="274" fill="#afafaf" textLength="18" lengthAdjust="spacingAndGlyphs">13</text>
    <rect x="54" y="272" width="9" height="17" fill="#005f00" />
    <rect x="63" y="272" width="9" height="17" fill="#005f00" />
    <text x="63" y="274" fill="#d7ffd7" textLength="9" lengthAdjust="spacingAndGlyphs">+</text>
    <rect x="72" y="272" width="9" height="17" fill="#005f00" />
    <rect x="81" y="272" width="45" height="17" fill="#005f00" />
    <text x="81" y="274" fill="#0000ee" textLength="45" lengthAdjust="spacingAndGlyphs">const</text>
    <rect x="126" y="272" width="117" height="17" fill="#005f00" />
    <text x="126" y="274" fill="#e5e5e5" textLength="117" lengthAdjust="spacingAndGlyphs"> newLine13 = </text>
    <rect x="243" y="272" width="36" height="17" fill="#005f00" />
    <text x="243" y="274" fill="#0000ee" textLength="36" lengthAdjust="spacingAndGlyphs">true</text>
    <rect x="279" y="272" width="9" height="17" fill="#005f00" />
    <text x="279" y="274" fill="#e5e5e5" textLength="9" lengthAdjust="spacingAndGlyphs">;</text>
    <text x="693" y="274" fill="#333333" textLength="9" lengthAdjust="spacingAndGlyphs">│</text>
    <text x="711" y="274" fill="#333333" textLength="9" lengthAdjust="spacingAndGlyphs">│</text>
    <text x="0" y="291" fill="#333333" textLength="9" lengthAdjust="spacingAndGlyphs">│</text>
    <text x="18" y="291" fill="#333333" textLength="9" lengthAdjust="spacingAndGlyphs">│</text>
    <rect x="36" y="289" width="18" height="17" fill="#5f0000" />
    <text x="36" y="291" fill="#afafaf" textLength="18" lengthAdjust="spacingAndGlyphs">14</text>
    <rect x="54" y="289" width="9" height="17" fill="#5f0000" />
    <rect x="63" y="289" width="9" height="17" fill="#5f0000" />
    <text x="63" y="291" fill="#ff87af" textLength="9" lengthAdjust="spacingAndGlyphs">-</text>
    <rect x="72" y="289" width="9" height="17" fill="#5f0000" />
    <rect x="81" y="289" width="45" height="17" fill="#5f0000" />
    <text x="81" y="291" fill="#0000ee" textLength="45" lengthAdjust="spacingAndGlyphs">const</text>
    <rect x="126" y="289" width="117" height="17" fill="#5f0000" />
    <text x="126" y="291" fill="#e5e5e5" textLength="117" lengthAdjust="spacingAndGlyphs"> oldLine14 = </text>
    <rect x="243" y="289" width="36" height="17" fill="#5f0000" />
    <text x="243" y="291" fill="#0000ee" textLength="36" lengthAdjust="spacingAndGlyphs">true</text>
    <rect x="279" y="289" width="9" height="17" fill="#5f0000" />
    <text x="279" y="291" fill="#e5e5e5" textLength="9" lengthAdjust="spacingAndGlyphs">;</text>
    <text x="693" y="291" fill="#333333" textLength="9" lengthAdjust="spacingAndGlyphs">│</text>
    <text x="711" y="291" fill="#333333" textLength="9" lengthAdjust="spacingAndGlyphs">│</text>
    <text x="0" y="308" fill="#333333" textLength="9" lengthAdjust="spacingAndGlyphs">│</text>
    <text x="18" y="308" fill="#333333" textLength="9" lengthAdjust="spacingAndGlyphs">│</text>
    <rect x="36" y="306" width="18" height="17" fill="#005f00" />
    <text x="36" y="308" fill="#afafaf" textLength="18" lengthAdjust="spacingAndGlyphs">14</text>
    <rect x="54" y="306" width="9" height="17" fill="#005f00" />
    <rect x="63" y="306" width="9" height="17" fill="#005f00" />
    <text x="63" y="308" fill="#d7ffd7" textLength="9" lengthAdjust="spacingAndGlyphs">+</text>
    <rect x="72" y="306" width="9" height="17" fill="#005f00" />
    <rect x="81" y="306" width="45" height="17" fill="#005f00" />
    <text x="81" y="308" fill="#0000ee" textLength="45" lengthAdjust="spacingAndGlyphs">const</text>
    <rect x="126" y="306" width="117" height="17" fill="#005f00" />
    <text x="126" y="308" fill="#e5e5e5" textLength="117" lengthAdjust="spacingAndGlyphs"> newLine14 = </text>
    <rect x="243" y="306" width="36" height="17" fill="#005f00" />
    <text x="243" y="308" fill="#0000ee" textLength="36" lengthAdjust="spacingAndGlyphs">true</text>
    <rect x="279" y="306" width="9" height="17" fill="#005f00" />
    <text x="279" y="308" fill="#e5e5e5" textLength="9" lengthAdjust="spacingAndGlyphs">;</text>
    <text x="693" y="308" fill="#333333" textLength="9" lengthAdjust="spacingAndGlyphs">│</text>
    <text x="711" y="308" fill="#333333" textLength="9" lengthAdjust="spacingAndGlyphs">│</text>
    <text x="0" y="325" fill="#333333" textLength="9" lengthAdjust="spacingAndGlyphs">│</text>
    <text x="18" y="325" fill="#333333" textLength="9" lengthAdjust="spacingAndGlyphs">│</text>
    <rect x="36" y="323" width="18" height="17" fill="#5f0000" />
    <text x="36" y="325" fill="#afafaf" textLength="18" lengthAdjust="spacingAndGlyphs">15</text>
    <rect x="54" y="323" width="9" height="17" fill="#5f0000" />
    <rect x="63" y="323" width="9" height="17" fill="#5f0000" />
    <text x="63" y="325" fill="#ff87af" textLength="9" lengthAdjust="spacingAndGlyphs">-</text>
    <rect x="72" y="323" width="9" height="17" fill="#5f0000" />
    <rect x="81" y="323" width="45" height="17" fill="#5f0000" />
    <text x="81" y="325" fill="#0000ee" textLength="45" lengthAdjust="spacingAndGlyphs">const</text>
    <rect x="126" y="323" width="117" height="17" fill="#5f0000" />
    <text x="126" y="325" fill="#e5e5e5" textLength="117" lengthAdjust="spacingAndGlyphs"> oldLine15 = </text>
    <rect x="243" y="323" width="36" height="17" fill="#5f0000" />
    <text x="243" y="325" fill="#0000ee" textLength="36" lengthAdjust="spacingAndGlyphs">true</text>
    <rect x="279" y="323" width="9" height="17" fill="#5f0000" />
    <text x="279" y="325" fill="#e5e5e5" textLength="9" lengthAdjust="spacingAndGlyphs">;</text>
    <text x="693" y="325" fill="#333333" textLength="9" lengthAdjust="spacingAndGlyphs">│</text>
    <text x="711" y="325" fill="#333333" textLength="9" lengthAdjust="spacingAndGlyphs">│</text>
    <text x="0" y="342" fill="#333333" textLength="9" lengthAdjust="spacingAndGlyphs">│</text>
    <text x="18" y="342" fill="#333333" textLength="9" lengthAdjust="spacingAndGlyphs">│</text>
    <rect x="36" y="340" width="18" height="17" fill="#005f00" />
    <text x="36" y="342" fill="#afafaf" textLength="18" lengthAdjust="spacingAndGlyphs">15</text>
    <rect x="54" y="340" width="9" height="17" fill="#005f00" />
    <rect x="63" y="340" width="9" height="17" fill="#005f00" />
    <text x="63" y="342" fill="#d7ffd7" textLength="9" lengthAdjust="spacingAndGlyphs">+</text>
    <rect x="72" y="340" width="9" height="17" fill="#005f00" />
    <rect x="81" y="340" width="45" height="17" fill="#005f00" />
    <text x="81" y="342" fill="#0000ee" textLength="45" lengthAdjust="spacingAndGlyphs">const</text>
    <rect x="126" y="340" width="117" height="17" fill="#005f00" />
    <text x="126" y="342" fill="#e5e5e5" textLength="117" lengthAdjust="spacingAndGlyphs"> newLine15 = </text>
    <rect x="243" y="340" width="36" height="17" fill="#005f00" />
    <text x="243" y="342" fill="#0000ee" textLength="36" lengthAdjust="spacingAndGlyphs">true</text>
    <rect x="279" y="340" width="9" height="17" fill="#005f00" />
    <text x="279" y="342" fill="#e5e5e5" textLength="9" lengthAdjust="spacingAndGlyphs">;</text>
    <text x="693" y="342" fill="#333333" textLength="9" lengthAdjust="spacingAndGlyphs">│</text>
    <text x="711" y="342" fill="#333333" textLength="9" lengthAdjust="spacingAndGlyphs">│</text>
    <text x="0" y="359" fill="#333333" textLength="9" lengthAdjust="spacingAndGlyphs">│</text>
    <text x="18" y="359" fill="#333333" textLength="9" lengthAdjust="spacingAndGlyphs">│</text>
    <rect x="36" y="357" width="18" height="17" fill="#5f0000" />
    <text x="36" y="359" fill="#afafaf" textLength="18" lengthAdjust="spacingAndGlyphs">16</text>
    <rect x="54" y="357" width="9" height="17" fill="#5f0000" />
    <rect x="63" y="357" width="9" height="17" fill="#5f0000" />
    <text x="63" y="359" fill="#ff87af" textLength="9" lengthAdjust="spacingAndGlyphs">-</text>
    <rect x="72" y="357" width="9" height="17" fill="#5f0000" />
    <rect x="81" y="357" width="45" height="17" fill="#5f0000" />
    <text x="81" y="359" fill="#0000ee" textLength="45" lengthAdjust="spacingAndGlyphs">const</text>
    <rect x="126" y="357" width="117" height="17" fill="#5f0000" />
    <text x="126" y="359" fill="#e5e5e5" textLength="117" lengthAdjust="spacingAndGlyphs"> oldLine16 = </text>
    <rect x="243" y="357" width="36" height="17" fill="#5f0000" />
    <text x="243" y="359" fill="#0000ee" textLength="36" lengthAdjust="spacingAndGlyphs">true</text>
    <rect x="279" y="357" width="9" height="17" fill="#5f0000" />
    <text x="279" y="359" fill="#e5e5e5" textLength="9" lengthAdjust="spacingAndGlyphs">;</text>
    <text x="693" y="359" fill="#333333" textLength="9" lengthAdjust="spacingAndGlyphs">│</text>
    <text x="711" y="359" fill="#333333" textLength="9" lengthAdjust="spacingAndGlyphs">│</text>
    <text x="0" y="376" fill="#333333" textLength="9" lengthAdjust="spacingAndGlyphs">│</text>
    <text x="18" y="376" fill="#333333" textLength="9" lengthAdjust="spacingAndGlyphs">│</text>
    <rect x="36" y="374" width="18" height="17" fill="#005f00" />
    <text x="36" y="376" fill="#afafaf" textLength="18" lengthAdjust="spacingAndGlyphs">16</text>
    <rect x="54" y="374" width="9" height="17" fill="#005f00" />
    <rect x="63" y="374" width="9" height="17" fill="#005f00" />
    <text x="63" y="376" fill="#d7ffd7" textLength="9" lengthAdjust="spacingAndGlyphs">+</text>
    <rect x="72" y="374" width="9" height="17" fill="#005f00" />
    <rect x="81" y="374" width="45" height="17" fill="#005f00" />
    <text x="81" y="376" fill="#0000ee" textLength="45" lengthAdjust="spacingAndGlyphs">const</text>
    <rect x="126" y="374" width="117" height="17" fill="#005f00" />
    <text x="126" y="376" fill="#e5e5e5" textLength="117" lengthAdjust="spacingAndGlyphs"> newLine16 = </text>
    <rect x="243" y="374" width="36" height="17" fill="#005f00" />
    <text x="243" y="376" fill="#0000ee" textLength="36" lengthAdjust="spacingAndGlyphs">true</text>
    <rect x="279" y="374" width="9" height="17" fill="#005f00" />
    <text x="279" y="376" fill="#e5e5e5" textLength="9" lengthAdjust="spacingAndGlyphs">;</text>
    <text x="693" y="376" fill="#333333" textLength="9" lengthAdjust="spacingAndGlyphs">│</text>
    <text x="711" y="376" fill="#333333" textLength="9" lengthAdjust="spacingAndGlyphs">│</text>
    <text x="0" y="393" fill="#333333" textLength="9" lengthAdjust="spacingAndGlyphs">│</text>
    <text x="18" y="393" fill="#333333" textLength="9" lengthAdjust="spacingAndGlyphs">│</text>
    <rect x="36" y="391" width="18" height="17" fill="#5f0000" />
    <text x="36" y="393" fill="#afafaf" textLength="18" lengthAdjust="spacingAndGlyphs">17</text>
    <rect x="54" y="391" width="9" height="17" fill="#5f0000" />
    <rect x="63" y="391" width="9" height="17" fill="#5f0000" />
    <text x="63" y="393" fill="#ff87af" textLength="9" lengthAdjust="spacingAndGlyphs">-</text>
    <rect x="72" y="391" width="9" height="17" fill="#5f0000" />
    <rect x="81" y="391" width="45" height="17" fill="#5f0000" />
    <text x="81" y="393" fill="#0000ee" textLength="45" lengthAdjust="spacingAndGlyphs">const</text>
    <rect x="126" y="391" width="117" height="17" fill="#5f0000" />
    <text x="126" y="393" fill="#e5e5e5" textLength="117" lengthAdjust="spacingAndGlyphs"> oldLine17 = </text>
    <rect x="243" y="391" width="36" height="17" fill="#5f0000" />
    <text x="243" y="393" fill="#0000ee" textLength="36" lengthAdjust="spacingAndGlyphs">true</text>
    <rect x="279" y="391" width="9" height="17" fill="#5f0000" />
    <text x="279" y="393" fill="#e5e5e5" textLength="9" lengthAdjust="spacingAndGlyphs">;</text>
    <text x="693" y="393" fill="#333333" textLength="9" lengthAdjust="spacingAndGlyphs">│</text>
    <text x="711" y="393" fill="#333333" textLength="9" lengthAdjust="spacingAndGlyphs">│</text>
    <text x="0" y="410" fill="#333333" textLength="9" lengthAdjust="spacingAndGlyphs">│</text>
    <text x="18" y="410" fill="#333333" textLength="9" lengthAdjust="spacingAndGlyphs">│</text>
    <rect x="36" y="408" width="18" height="17" fill="#005f00" />
    <text x="36" y="410" fill="#afafaf" textLength="18" lengthAdjust="spacingAndGlyphs">17</text>
    <rect x="54" y="408" width="9" height="17" fill="#005f00" />
    <rect x="63" y="408" width="9" height="17" fill="#005f00" />
    <text x="63" y="410" fill="#d7ffd7" textLength="9" lengthAdjust="spacingAndGlyphs">+</text>
    <rect x="72" y="408" width="9" height="17" fill="#005f00" />
    <rect x="81" y="408" width="45" height="17" fill="#005f00" />
    <text x="81" y="410" fill="#0000ee" textLength="45" lengthAdjust="spacingAndGlyphs">const</text>
    <rect x="126" y="408" width="117" height="17" fill="#005f00" />
    <text x="126" y="410" fill="#e5e5e5" textLength="117" lengthAdjust="spacingAndGlyphs"> newLine17 = </text>
    <rect x="243" y="408" width="36" height="17" fill="#005f00" />
    <text x="243" y="410" fill="#0000ee" textLength="36" lengthAdjust="spacingAndGlyphs">true</text>
    <rect x="279" y="408" width="9" height="17" fill="#005f00" />
    <text x="279" y="410" fill="#e5e5e5" textLength="9" lengthAdjust="spacingAndGlyphs">;</text>
    <text x="693" y="410" fill="#333333" textLength="9" lengthAdjust="spacingAndGlyphs">│</text>
    <text x="711" y="410" fill="#333333" textLength="9" lengthAdjust="spacingAndGlyphs">│</text>
    <text x="0" y="427" fill="#333333" textLength="9" lengthAdjust="spacingAndGlyphs">│</text>
    <text x="18" y="427" fill="#333333" textLength="9" lengthAdjust="spacingAndGlyphs">│</text>
    <rect x="36" y="425" width="18" height="17" fill="#5f0000" />
    <text x="36" y="427" fill="#afafaf" textLength="18" lengthAdjust="spacingAndGlyphs">18</text>
    <rect x="54" y="425" width="9" height="17" fill="#5f0000" />
    <rect x="63" y="425" width="9" height="17" fill="#5f0000" />
    <text x="63" y="427" fill="#ff87af" textLength="9" lengthAdjust="spacingAndGlyphs">-</text>
    <rect x="72" y="425" width="9" height="17" fill="#5f0000" />
    <rect x="81" y="425" width="45" height="17" fill="#5f0000" />
    <text x="81" y="427" fill="#0000ee" textLength="45" lengthAdjust="spacingAndGlyphs">const</text>
    <rect x="126" y="425" width="117" height="17" fill="#5f0000" />
    <text x="126" y="427" fill="#e5e5e5" textLength="117" lengthAdjust="spacingAndGlyphs"> oldLine18 = </text>
    <rect x="243" y="425" width="36" height="17" fill="#5f0000" />
    <text x="243" y="427" fill="#0000ee" textLength="36" lengthAdjust="spacingAndGlyphs">true</text>
    <rect x="279" y="425" width="9" height="17" fill="#5f0000" />
    <text x="279" y="427" fill="#e5e5e5" textLength="9" lengthAdjust="spacingAndGlyphs">;</text>
    <text x="693" y="427" fill="#333333" textLength="9" lengthAdjust="spacingAndGlyphs">│</text>
    <text x="711" y="427" fill="#333333" textLength="9" lengthAdjust="spacingAndGlyphs">│</text>
    <text x="0" y="444" fill="#333333" textLength="9" lengthAdjust="spacingAndGlyphs">│</text>
    <text x="18" y="444" fill="#333333" textLength="9" lengthAdjust="spacingAndGlyphs">│</text>
    <rect x="36" y="442" width="18" height="17" fill="#005f00" />
    <text x="36" y="444" fill="#afafaf" textLength="18" lengthAdjust="spacingAndGlyphs">18</text>
    <rect x="54" y="442" width="9" height="17" fill="#005f00" />
    <rect x="63" y="442" width="9" height="17" fill="#005f00" />
    <text x="63" y="444" fill="#d7ffd7" textLength="9" lengthAdjust="spacingAndGlyphs">+</text>
    <rect x="72" y="442" width="9" height="17" fill="#005f00" />
    <rect x="81" y="442" width="45" height="17" fill="#005f00" />
    <text x="81" y="444" fill="#0000ee" textLength="45" lengthAdjust="spacingAndGlyphs">const</text>
    <rect x="126" y="442" width="117" height="17" fill="#005f00" />
    <text x="126" y="444" fill="#e5e5e5" textLength="117" lengthAdjust="spacingAndGlyphs"> newLine18 = </text>
    <rect x="243" y="442" width="36" height="17" fill="#005f00" />
    <text x="243" y="444" fill="#0000ee" textLength="36" lengthAdjust="spacingAndGlyphs">true</text>
    <rect x="279" y="442" width="9" height="17" fill="#005f00" />
    <text x="279" y="444" fill="#e5e5e5" textLength="9" lengthAdjust="spacingAndGlyphs">;</text>
    <text x="693" y="444" fill="#333333" textLength="9" lengthAdjust="spacingAndGlyphs">│</text>
    <text x="711" y="444" fill="#333333" textLength="9" lengthAdjust="spacingAndGlyphs">│</text>
    <text x="0" y="461" fill="#333333" textLength="9" lengthAdjust="spacingAndGlyphs">│</text>
    <text x="18" y="461" fill="#333333" textLength="9" lengthAdjust="spacingAndGlyphs">│</text>
    <rect x="36" y="459" width="18" height="17" fill="#5f0000" />
    <text x="36" y="461" fill="#afafaf" textLength="18" lengthAdjust="spacingAndGlyphs">19</text>
    <rect x="54" y="459" width="9" height="17" fill="#5f0000" />
    <rect x="63" y="459" width="9" height="17" fill="#5f0000" />
    <text x="63" y="461" fill="#ff87af" textLength="9" lengthAdjust="spacingAndGlyphs">-</text>
    <rect x="72" y="459" width="9" height="17" fill="#5f0000" />
    <rect x="81" y="459" width="45" height="17" fill="#5f0000" />
    <text x="81" y="461" fill="#0000ee" textLength="45" lengthAdjust="spacingAndGlyphs">const</text>
    <rect x="126" y="459" width="117" height="17" fill="#5f0000" />
    <text x="126" y="461" fill="#e5e5e5" textLength="117" lengthAdjust="spacingAndGlyphs"> oldLine19 = </text>
    <rect x="243" y="459" width="36" height="17" fill="#5f0000" />
    <text x="243" y="461" fill="#0000ee" textLength="36" lengthAdjust="spacingAndGlyphs">true</text>
    <rect x="279" y="459" width="9" height="17" fill="#5f0000" />
    <text x="279" y="461" fill="#e5e5e5" textLength="9" lengthAdjust="spacingAndGlyphs">;</text>
    <text x="693" y="461" fill="#333333" textLength="9" lengthAdjust="spacingAndGlyphs">│</text>
    <text x="711" y="461" fill="#333333" textLength="9" lengthAdjust="spacingAndGlyphs">│</text>
    <text x="0" y="478" fill="#333333" textLength="9" lengthAdjust="spacingAndGlyphs">│</text>
    <text x="18" y="478" fill="#333333" textLength="9" lengthAdjust="spacingAndGlyphs">│</text>
    <rect x="36" y="476" width="18" height="17" fill="#005f00" />
    <text x="36" y="478" fill="#afafaf" textLength="18" lengthAdjust="spacingAndGlyphs">19</text>
    <rect x="54" y="476" width="9" height="17" fill="#005f00" />
    <rect x="63" y="476" width="9" height="17" fill="#005f00" />
    <text x="63" y="478" fill="#d7ffd7" textLength="9" lengthAdjust="spacingAndGlyphs">+</text>
    <rect x="72" y="476" width="9" height="17" fill="#005f00" />
    <rect x="81" y="476" width="45" height="17" fill="#005f00" />
    <text x="81" y="478" fill="#0000ee" textLength="45" lengthAdjust="spacingAndGlyphs">const</text>
    <rect x="126" y="476" width="117" height="17" fill="#005f00" />
    <text x="126" y="478" fill="#e5e5e5" textLength="117" lengthAdjust="spacingAndGlyphs"> newLine19 = </text>
    <rect x="243" y="476" width="36" height="17" fill="#005f00" />
    <text x="243" y="478" fill="#0000ee" textLength="36" lengthAdjust="spacingAndGlyphs">true</text>
    <rect x="279" y="476" width="9" height="17" fill="#005f00" />
    <text x="279" y="478" fill="#e5e5e5" textLength="9" lengthAdjust="spacingAndGlyphs">;</text>
    <text x="693" y="478" fill="#333333" textLength="9" lengthAdjust="spacingAndGlyphs">│</text>
    <text x="711" y="478" fill="#333333" textLength="9" lengthAdjust="spacingAndGlyphs">│</text>
    <text x="0" y="495" fill="#333333" textLength="9" lengthAdjust="spacingAndGlyphs">│</text>
    <text x="18" y="495" fill="#333333" textLength="9" lengthAdjust="spacingAndGlyphs">│</text>
    <rect x="36" y="493" width="18" height="17" fill="#5f0000" />
    <text x="36" y="495" fill="#afafaf" textLength="18" lengthAdjust="spacingAndGlyphs">20</text>
    <rect x="54" y="493" width="9" height="17" fill="#5f0000" />
    <rect x="63" y="493" width="9" height="17" fill="#5f0000" />
    <text x="63" y="495" fill="#ff87af" textLength="9" lengthAdjust="spacingAndGlyphs">-</text>
    <rect x="72" y="493" width="9" height="17" fill="#5f0000" />
    <rect x="81" y="493" width="45" height="17" fill="#5f0000" />
    <text x="81" y="495" fill="#0000ee" textLength="45" lengthAdjust="spacingAndGlyphs">const</text>
    <rect x="126" y="493" width="117" height="17" fill="#5f0000" />
    <text x="126" y="495" fill="#e5e5e5" textLength="117" lengthAdjust="spacingAndGlyphs"> oldLine20 = </text>
    <rect x="243" y="493" width="36" height="17" fill="#5f0000" />
    <text x="243" y="495" fill="#0000ee" textLength="36" lengthAdjust="spacingAndGlyphs">true</text>
    <rect x="279" y="493" width="9" height="17" fill="#5f0000" />
    <text x="279" y="495" fill="#e5e5e5" textLength="9" lengthAdjust="spacingAndGlyphs">;</text>
    <text x="693" y="495" fill="#333333" textLength="9" lengthAdjust="spacingAndGlyphs">│</text>
    <text x="711" y="495" fill="#333333" textLength="9" lengthAdjust="spacingAndGlyphs">│</text>
    <text x="0" y="512" fill="#333333" textLength="9" lengthAdjust="spacingAndGlyphs">│</text>
    <text x="18" y="512" fill="#333333" textLength="9" lengthAdjust="spacingAndGlyphs">│</text>
    <rect x="36" y="510" width="18" height="17" fill="#005f00" />
    <text x="36" y="512" fill="#afafaf" textLength="18" lengthAdjust="spacingAndGlyphs">20</text>
    <rect x="54" y="510" width="9" height="17" fill="#005f00" />
    <rect x="63" y="510" width="9" height="17" fill="#005f00" />
    <text x="63" y="512" fill="#d7ffd7" textLength="9" lengthAdjust="spacingAndGlyphs">+</text>
    <rect x="72" y="510" width="9" height="17" fill="#005f00" />
    <rect x="81" y="510" width="45" height="17" fill="#005f00" />
    <text x="81" y="512" fill="#0000ee" textLength="45" lengthAdjust="spacingAndGlyphs">const</text>
    <rect x="126" y="510" width="117" height="17" fill="#005f00" />
    <text x="126" y="512" fill="#e5e5e5" textLength="117" lengthAdjust="spacingAndGlyphs"> newLine20 = </text>
    <rect x="243" y="510" width="36" height="17" fill="#005f00" />
    <text x="243" y="512" fill="#0000ee" textLength="36" lengthAdjust="spacingAndGlyphs">true</text>
    <rect x="279" y="510" width="9" height="17" fill="#005f00" />
    <text x="279" y="512" fill="#e5e5e5" textLength="9" lengthAdjust="spacingAndGlyphs">;</text>
    <text x="693" y="512" fill="#333333" textLength="9" lengthAdjust="spacingAndGlyphs">│</text>
    <text x="711" y="512" fill="#333333" textLength="9" lengthAdjust="spacingAndGlyphs">│</text>
    <text x="0" y="529" fill="#333333" textLength="9" lengthAdjust="spacingAndGlyphs">│</text>
    <text x="18" y="529" fill="#333333" textLength="684" lengthAdjust="spacingAndGlyphs">╰──────────────────────────────────────────────────────────────────────────╯</text>
    <text x="711" y="529" fill="#333333" textLength="9" lengthAdjust="spacingAndGlyphs">│</text>
    <text x="0" y="546" fill="#333333" textLength="9" lengthAdjust="spacingAndGlyphs">│</text>
    <text x="18" y="546" fill="#ffffff" textLength="162" lengthAdjust="spacingAndGlyphs">Apply this change?</text>
    <text x="711" y="546" fill="#333333" textLength="9" lengthAdjust="spacingAndGlyphs">│</text>
    <text x="0" y="563" fill="#333333" textLength="9" lengthAdjust="spacingAndGlyphs">│</text>
    <text x="711" y="563" fill="#333333" textLength="9" lengthAdjust="spacingAndGlyphs">│</text>
    <text x="0" y="580" fill="#333333" textLength="9" lengthAdjust="spacingAndGlyphs">│</text>
    <rect x="18" y="578" width="9" height="17" fill="#001a00" />
    <text x="18" y="580" fill="#00cd00" textLength="9" lengthAdjust="spacingAndGlyphs">●</text>
    <rect x="27" y="578" width="9" height="17" fill="#001a00" />
    <rect x="36" y="578" width="18" height="17" fill="#001a00" />
    <text x="36" y="580" fill="#00cd00" textLength="18" lengthAdjust="spacingAndGlyphs">1.</text>
    <rect x="54" y="578" width="9" height="17" fill="#001a00" />
    <rect x="63" y="578" width="90" height="17" fill="#001a00" />
    <text x="63" y="580" fill="#00cd00" textLength="90" lengthAdjust="spacingAndGlyphs">Allow once</text>
    <rect x="153" y="578" width="153" height="17" fill="#001a00" />
    <text x="711" y="580" fill="#333333" textLength="9" lengthAdjust="spacingAndGlyphs">│</text>
    <text x="0" y="597" fill="#333333" textLength="9" lengthAdjust="spacingAndGlyphs">│</text>
    <text x="36" y="597" fill="#ffffff" textLength="18" lengthAdjust="spacingAndGlyphs">2.</text>
    <text x="63" y="597" fill="#ffffff" textLength="198" lengthAdjust="spacingAndGlyphs">Allow for this session</text>
    <text x="711" y="597" fill="#333333" textLength="9" lengthAdjust="spacingAndGlyphs">│</text>
    <text x="0" y="614" fill="#333333" textLength="9" lengthAdjust="spacingAndGlyphs">│</text>
    <text x="36" y="614" fill="#ffffff" textLength="18" lengthAdjust="spacingAndGlyphs">3.</text>
    <text x="63" y="614" fill="#ffffff" textLength="243" lengthAdjust="spacingAndGlyphs">Modify with external editor</text>
    <text x="711" y="614" fill="#333333" textLength="9" lengthAdjust="spacingAndGlyphs">│</text>
    <text x="0" y="631" fill="#333333" textLength="9" lengthAdjust="spacingAndGlyphs">│</text>
    <text x="36" y="631" fill="#ffffff" textLength="18" lengthAdjust="spacingAndGlyphs">4.</text>
    <text x="63" y="631" fill="#ffffff" textLength="225" lengthAdjust="spacingAndGlyphs">No, suggest changes (esc)</text>
    <text x="711" y="631" fill="#333333" textLength="9" lengthAdjust="spacingAndGlyphs">│</text>
    <text x="0" y="648" fill="#333333" textLength="720" lengthAdjust="spacingAndGlyphs">╰──────────────────────────────────────────────────────────────────────────────╯</text>
  </g>
</svg>