<svg xmlns="http://www.w3.org/2000/svg" width="920" height="88" viewBox="0 0 920 88">
  <style>
    text { font-family: Consolas, "Courier New", monospace; font-size: 14px; dominant-baseline: text-before-edge; white-space: pre; }
  </style>
  <rect width="920" height="88" fill="#000000" />
  <g transform="translate(10, 10)">
    <text x="18" y="2" fill="#d7ffd7" textLength="9" lengthAdjust="spacingAndGlyphs">✓</text>
    <text x="45" y="2" fill="#ffffff" textLength="45" lengthAdjust="spacingAndGlyphs" font-weight="bold">edit </text>
    <text x="99" y="2" fill="#afafaf" textLength="63" lengthAdjust="spacingAndGlyphs">test.ts</text>
    <text x="171" y="2" fill="#d7afff" textLength="90" lengthAdjust="spacingAndGlyphs">→ Accepted</text>
    <text x="270" y="2" fill="#afafaf" textLength="9" lengthAdjust="spacingAndGlyphs">(</text>
    <text x="279" y="2" fill="#d7ffd7" textLength="18" lengthAdjust="spacingAndGlyphs">+1</text>
    <text x="297" y="2" fill="#afafaf" textLength="18" lengthAdjust="spacingAndGlyphs">, </text>
    <text x="315" y="2" fill="#ff87af" textLength="18" lengthAdjust="spacingAndGlyphs">-1</text>
    <text x="333" y="2" fill="#afafaf" textLength="9" lengthAdjust="spacingAndGlyphs">)</text>
    <rect x="54" y="34" width="9" height="17" fill="#5f0000" />
    <text x="54" y="36" fill="#afafaf" textLength="9" lengthAdjust="spacingAndGlyphs">1</text>
    <rect x="63" y="34" width="9" height="17" fill="#5f0000" />
    <rect x="72" y="34" width="9" height="17" fill="#5f0000" />
    <text x="72" y="36" fill="#ff87af" textLength="9" lengthAdjust="spacingAndGlyphs">-</text>
    <rect x="81" y="34" width="9" height="17" fill="#5f0000" />
    <rect x="90" y="34" width="27" height="17" fill="#5f0000" />
    <text x="90" y="36" fill="#e5e5e5" textLength="27" lengthAdjust="spacingAndGlyphs">old</text>
    <rect x="54" y="51" width="9" height="17" fill="#005f00" />
    <text x="54" y="53" fill="#afafaf" textLength="9" lengthAdjust="spacingAndGlyphs">1</text>
    <rect x="63" y="51" width="9" height="17" fill="#005f00" />
    <rect x="72" y="51" width="9" height="17" fill="#005f00" />
    <text x="72" y="53" fill="#d7ffd7" textLength="9" lengthAdjust="spacingAndGlyphs">+</text>
    <rect x="81" y="51" width="9" height="17" fill="#005f00" />
    <rect x="90" y="51" width="27" height="17" fill="#005f00" />
    <text x="90" y="53" fill="#0000ee" textLength="27" lengthAdjust="spacingAndGlyphs">new</text>
  </g>
</svg>